<mxfile host="app.diagrams.net" modified="2023-08-20T03:56:34.181Z" agent="Mozilla/5.0 (Macintosh; Intel Mac OS X 10_15_7) AppleWebKit/537.36 (KHTML, like Gecko) Chrome/114.0.0.0 Safari/537.36" etag="DDjGD900Vt2PB2VzxS8O" version="21.6.8" type="github">
  <diagram name="Git三个区域" id="IohMRMsMJI95O5LNqh4R">
    <mxGraphModel dx="1841" dy="952" grid="0" gridSize="10" guides="1" tooltips="1" connect="1" arrows="1" fold="1" page="1" pageScale="1" pageWidth="2336" pageHeight="1654" math="0" shadow="0">
      <root>
        <mxCell id="0" />
        <mxCell id="1" parent="0" />
      </root>
    </mxGraphModel>
  </diagram>
</mxfile>
